<svg width="333" height="100" viewBox="0 0 333 100" fill="none" xmlns="http://www.w3.org/2000/svg">
<rect x="27" y="24" width="55" height="53" fill="white"/>
<path d="M85 0C93.2843 0 100 6.71573 100 15V85C100 93.2843 93.2843 100 85 100H15C6.71573 100 3.2215e-07 93.2843 0 85V15C0 6.71573 6.71573 3.22129e-07 15 0H85ZM53.1035 27.1328C49.793 27.1328 46.6729 27.7334 43.7432 28.9346C40.8428 30.1357 38.2939 31.8203 36.0967 33.9883C33.9287 36.1562 32.2148 38.7783 30.9551 41.8545C29.6953 44.9307 29.0654 48.3291 29.0654 52.0498C29.0654 55.6826 29.6953 59.0225 30.9551 62.0693C32.2148 65.0869 33.9287 67.6943 36.0967 69.8916C38.2939 72.0889 40.8428 73.8027 43.7432 75.0332C46.6729 76.2637 49.793 76.8789 53.1035 76.8789C55.0664 76.8789 56.9707 76.6445 58.8164 76.1758C60.6914 75.7363 62.4639 75.0771 64.1338 74.1982C65.833 73.3193 67.4004 72.25 68.8359 70.9902C70.3008 69.7305 71.5898 68.3096 72.7031 66.7275L63.9141 57.8945C63.4453 58.9492 62.8301 59.916 62.0684 60.7949C61.3359 61.6445 60.4863 62.377 59.5195 62.9922C58.582 63.5781 57.5713 64.0322 56.4873 64.3545C55.4033 64.6768 54.2754 64.8379 53.1035 64.8379C52.6348 64.8379 52.166 64.8232 51.6973 64.7939C51.2285 64.7354 50.7598 64.6328 50.291 64.4863L72.791 37.3721C71.6777 35.79 70.3887 34.3691 68.9238 33.1094C67.459 31.8203 65.877 30.7363 64.1777 29.8574C62.5078 28.9785 60.7354 28.3047 58.8604 27.8359C56.9854 27.3672 55.0664 27.1328 53.1035 27.1328ZM53.1035 39.2617C53.6895 39.2617 54.2461 39.291 54.7734 39.3496C55.3301 39.4082 55.8867 39.54 56.4434 39.7451L42.4688 58.29C42.2344 57.8799 42.0439 57.4111 41.8975 56.8838C41.751 56.3564 41.6191 55.8145 41.502 55.2578C41.4141 54.6719 41.3408 54.1006 41.2822 53.5439C41.2529 52.9873 41.2383 52.4893 41.2383 52.0498C41.2383 50.0869 41.5459 48.3291 42.1611 46.7764C42.7764 45.1943 43.6113 43.8467 44.666 42.7334C45.75 41.6201 47.0098 40.7705 48.4453 40.1846C49.9102 39.5693 51.4629 39.2617 53.1035 39.2617Z" fill="#003FB4"/>
<path d="M85 0C93.2843 0 100 6.71573 100 15V85C100 93.2843 93.2843 100 85 100H15C6.71573 100 3.2215e-07 93.2843 0 85V15C0 6.71573 6.71573 3.22129e-07 15 0H85ZM53.1035 27.1328C49.793 27.1328 46.6729 27.7334 43.7432 28.9346C40.8428 30.1357 38.2939 31.8203 36.0967 33.9883C33.9287 36.1562 32.2148 38.7783 30.9551 41.8545C29.6953 44.9307 29.0654 48.3291 29.0654 52.0498C29.0654 55.6826 29.6953 59.0225 30.9551 62.0693C32.2148 65.0869 33.9287 67.6943 36.0967 69.8916C38.2939 72.0889 40.8428 73.8027 43.7432 75.0332C46.6729 76.2637 49.793 76.8789 53.1035 76.8789C55.0664 76.8789 56.9707 76.6445 58.8164 76.1758C60.6914 75.7363 62.4639 75.0771 64.1338 74.1982C65.833 73.3193 67.4004 72.25 68.8359 70.9902C70.3008 69.7305 71.5898 68.3096 72.7031 66.7275L63.9141 57.8945C63.4453 58.9492 62.8301 59.916 62.0684 60.7949C61.3359 61.6445 60.4863 62.377 59.5195 62.9922C58.582 63.5781 57.5713 64.0322 56.4873 64.3545C55.4033 64.6768 54.2754 64.8379 53.1035 64.8379C52.6348 64.8379 52.166 64.8232 51.6973 64.7939C51.2285 64.7354 50.7598 64.6328 50.291 64.4863L72.791 37.3721C71.6777 35.79 70.3887 34.3691 68.9238 33.1094C67.459 31.8203 65.877 30.7363 64.1777 29.8574C62.5078 28.9785 60.7354 28.3047 58.8604 27.8359C56.9854 27.3672 55.0664 27.1328 53.1035 27.1328ZM53.1035 39.2617C53.6895 39.2617 54.2461 39.291 54.7734 39.3496C55.3301 39.4082 55.8867 39.54 56.4434 39.7451L42.4688 58.29C42.2344 57.8799 42.0439 57.4111 41.8975 56.8838C41.751 56.3564 41.6191 55.8145 41.502 55.2578C41.4141 54.6719 41.3408 54.1006 41.2822 53.5439C41.2529 52.9873 41.2383 52.4893 41.2383 52.0498C41.2383 50.0869 41.5459 48.3291 42.1611 46.7764C42.7764 45.1943 43.6113 43.8467 44.666 42.7334C45.75 41.6201 47.0098 40.7705 48.4453 40.1846C49.9102 39.5693 51.4629 39.2617 53.1035 39.2617Z" fill="url(#paint0_linear_93_10123)" fill-opacity="0.3"/>
<path d="M117.333 82V17H131.333V41.75H159V17H173V82H159V53.0833H131.333V82H117.333ZM203.859 83.25C195.582 83.25 189.387 80.8889 185.276 76.1667C181.22 71.3889 179.193 65 179.193 57C179.193 49 181.22 42.6389 185.276 37.9167C189.387 33.1389 195.582 30.75 203.859 30.75C212.137 30.75 218.304 33.1389 222.359 37.9167C226.47 42.6389 228.526 49 228.526 57C228.526 65 226.47 71.3889 222.359 76.1667C218.304 80.8889 212.137 83.25 203.859 83.25ZM203.859 74.25C207.526 74.25 210.22 72.8056 211.943 69.9167C213.665 67.0278 214.526 62.6944 214.526 56.9167C214.526 51.1944 213.665 46.9167 211.943 44.0833C210.22 41.1944 207.526 39.75 203.859 39.75C200.193 39.75 197.498 41.1944 195.776 44.0833C194.054 46.9167 193.193 51.1944 193.193 56.9167C193.193 62.6944 194.054 67.0278 195.776 69.9167C197.498 72.8056 200.193 74.25 203.859 74.25ZM241.84 82C240.562 80.5 239.534 78.6944 238.757 76.5833C238.034 74.4722 237.673 71.3056 237.673 67.0833V41.5H230.84V32H237.84V19.5H251.09V32H259.173V41.5H251.09V65.6667C251.09 70.0556 251.59 73.4167 252.59 75.75C253.59 78.0833 254.784 80 256.173 81.5V82H241.84ZM285.724 83.25C277.835 83.25 271.807 80.8889 267.641 76.1667C263.53 71.4444 261.474 65.0278 261.474 56.9167C261.474 51.4722 262.391 46.8056 264.224 42.9167C266.113 39.0278 268.835 36.0278 272.391 33.9167C276.002 31.8056 280.391 30.75 285.557 30.75C293.002 30.75 298.696 33 302.641 37.5C306.641 42 308.641 48.6111 308.641 57.3333V60.1667H274.641C274.918 64.3889 276.002 67.7222 277.891 70.1667C279.835 72.5556 282.446 73.75 285.724 73.75C288.335 73.75 290.418 72.9722 291.974 71.4167C293.585 69.8611 294.641 68.0556 295.141 66H307.974C307.474 69.0556 306.363 71.8889 304.641 74.5C302.918 77.1111 300.502 79.2222 297.391 80.8333C294.28 82.4444 290.391 83.25 285.724 83.25ZM274.641 51.6667H295.474C295.252 47.8889 294.307 44.9722 292.641 42.9167C290.974 40.8056 288.585 39.75 285.474 39.75C282.418 39.75 279.946 40.75 278.057 42.75C276.224 44.6944 275.085 47.6667 274.641 51.6667ZM318.43 82C316.874 80.2222 315.763 78.2222 315.096 76C314.485 73.7222 314.18 70.75 314.18 67.0833V15.3333H327.68V65.6667C327.68 69.8889 328.152 73.1944 329.096 75.5833C330.041 77.9167 331.291 79.8889 332.846 81.5V82H318.43Z" fill="#003FB4"/>
<path d="M117.333 82V17H131.333V41.75H159V17H173V82H159V53.0833H131.333V82H117.333ZM203.859 83.25C195.582 83.25 189.387 80.8889 185.276 76.1667C181.22 71.3889 179.193 65 179.193 57C179.193 49 181.22 42.6389 185.276 37.9167C189.387 33.1389 195.582 30.75 203.859 30.75C212.137 30.75 218.304 33.1389 222.359 37.9167C226.47 42.6389 228.526 49 228.526 57C228.526 65 226.47 71.3889 222.359 76.1667C218.304 80.8889 212.137 83.25 203.859 83.25ZM203.859 74.25C207.526 74.25 210.22 72.8056 211.943 69.9167C213.665 67.0278 214.526 62.6944 214.526 56.9167C214.526 51.1944 213.665 46.9167 211.943 44.0833C210.22 41.1944 207.526 39.75 203.859 39.75C200.193 39.75 197.498 41.1944 195.776 44.0833C194.054 46.9167 193.193 51.1944 193.193 56.9167C193.193 62.6944 194.054 67.0278 195.776 69.9167C197.498 72.8056 200.193 74.25 203.859 74.25ZM241.84 82C240.562 80.5 239.534 78.6944 238.757 76.5833C238.034 74.4722 237.673 71.3056 237.673 67.0833V41.5H230.84V32H237.84V19.5H251.09V32H259.173V41.5H251.09V65.6667C251.09 70.0556 251.59 73.4167 252.59 75.75C253.59 78.0833 254.784 80 256.173 81.5V82H241.84ZM285.724 83.25C277.835 83.25 271.807 80.8889 267.641 76.1667C263.53 71.4444 261.474 65.0278 261.474 56.9167C261.474 51.4722 262.391 46.8056 264.224 42.9167C266.113 39.0278 268.835 36.0278 272.391 33.9167C276.002 31.8056 280.391 30.75 285.557 30.75C293.002 30.75 298.696 33 302.641 37.5C306.641 42 308.641 48.6111 308.641 57.3333V60.1667H274.641C274.918 64.3889 276.002 67.7222 277.891 70.1667C279.835 72.5556 282.446 73.75 285.724 73.75C288.335 73.75 290.418 72.9722 291.974 71.4167C293.585 69.8611 294.641 68.0556 295.141 66H307.974C307.474 69.0556 306.363 71.8889 304.641 74.5C302.918 77.1111 300.502 79.2222 297.391 80.8333C294.28 82.4444 290.391 83.25 285.724 83.25ZM274.641 51.6667H295.474C295.252 47.8889 294.307 44.9722 292.641 42.9167C290.974 40.8056 288.585 39.75 285.474 39.75C282.418 39.75 279.946 40.75 278.057 42.75C276.224 44.6944 275.085 47.6667 274.641 51.6667ZM318.43 82C316.874 80.2222 315.763 78.2222 315.096 76C314.485 73.7222 314.18 70.75 314.18 67.0833V15.3333H327.68V65.6667C327.68 69.8889 328.152 73.1944 329.096 75.5833C330.041 77.9167 331.291 79.8889 332.846 81.5V82H318.43Z" fill="url(#paint1_linear_93_10123)" fill-opacity="0.24"/>
<defs>
<linearGradient id="paint0_linear_93_10123" x1="9" y1="5" x2="100" y2="96" gradientUnits="userSpaceOnUse">
<stop stop-opacity="0"/>
<stop offset="1"/>
</linearGradient>
<linearGradient id="paint1_linear_93_10123" x1="198.633" y1="-21" x2="380.761" y2="117.73" gradientUnits="userSpaceOnUse">
<stop stop-opacity="0"/>
<stop offset="1"/>
</linearGradient>
</defs>
</svg>
