<svg width="100" height="100" viewBox="0 0 100 100" fill="none" xmlns="http://www.w3.org/2000/svg">
<rect x="27" y="24" width="55" height="53" fill="white"/>
<path d="M85 0C93.2843 0 100 6.71573 100 15V85C100 93.2843 93.2843 100 85 100H15C6.71573 100 3.2215e-07 93.2843 0 85V15C0 6.71573 6.71573 3.22129e-07 15 0H85ZM53.1035 27.1328C49.793 27.1328 46.6729 27.7334 43.7432 28.9346C40.8428 30.1357 38.2939 31.8203 36.0967 33.9883C33.9287 36.1562 32.2148 38.7783 30.9551 41.8545C29.6953 44.9307 29.0654 48.3291 29.0654 52.0498C29.0654 55.6826 29.6953 59.0225 30.9551 62.0693C32.2148 65.0869 33.9287 67.6943 36.0967 69.8916C38.2939 72.0889 40.8428 73.8027 43.7432 75.0332C46.6729 76.2637 49.793 76.8789 53.1035 76.8789C55.0664 76.8789 56.9707 76.6445 58.8164 76.1758C60.6914 75.7363 62.4639 75.0771 64.1338 74.1982C65.833 73.3193 67.4004 72.25 68.8359 70.9902C70.3008 69.7305 71.5898 68.3096 72.7031 66.7275L63.9141 57.8945C63.4453 58.9492 62.8301 59.916 62.0684 60.7949C61.3359 61.6445 60.4863 62.377 59.5195 62.9922C58.582 63.5781 57.5713 64.0322 56.4873 64.3545C55.4033 64.6768 54.2754 64.8379 53.1035 64.8379C52.6348 64.8379 52.166 64.8232 51.6973 64.7939C51.2285 64.7354 50.7598 64.6328 50.291 64.4863L72.791 37.3721C71.6777 35.79 70.3887 34.3691 68.9238 33.1094C67.459 31.8203 65.877 30.7363 64.1777 29.8574C62.5078 28.9785 60.7354 28.3047 58.8604 27.8359C56.9854 27.3672 55.0664 27.1328 53.1035 27.1328ZM53.1035 39.2617C53.6895 39.2617 54.2461 39.291 54.7734 39.3496C55.3301 39.4082 55.8867 39.54 56.4434 39.7451L42.4688 58.29C42.2344 57.8799 42.0439 57.4111 41.8975 56.8838C41.751 56.3564 41.6191 55.8145 41.502 55.2578C41.4141 54.6719 41.3408 54.1006 41.2822 53.5439C41.2529 52.9873 41.2383 52.4893 41.2383 52.0498C41.2383 50.0869 41.5459 48.3291 42.1611 46.7764C42.7764 45.1943 43.6113 43.8467 44.666 42.7334C45.75 41.6201 47.0098 40.7705 48.4453 40.1846C49.9102 39.5693 51.4629 39.2617 53.1035 39.2617Z" fill="#003FB4"/>
<path d="M85 0C93.2843 0 100 6.71573 100 15V85C100 93.2843 93.2843 100 85 100H15C6.71573 100 3.2215e-07 93.2843 0 85V15C0 6.71573 6.71573 3.22129e-07 15 0H85ZM53.1035 27.1328C49.793 27.1328 46.6729 27.7334 43.7432 28.9346C40.8428 30.1357 38.2939 31.8203 36.0967 33.9883C33.9287 36.1562 32.2148 38.7783 30.9551 41.8545C29.6953 44.9307 29.0654 48.3291 29.0654 52.0498C29.0654 55.6826 29.6953 59.0225 30.9551 62.0693C32.2148 65.0869 33.9287 67.6943 36.0967 69.8916C38.2939 72.0889 40.8428 73.8027 43.7432 75.0332C46.6729 76.2637 49.793 76.8789 53.1035 76.8789C55.0664 76.8789 56.9707 76.6445 58.8164 76.1758C60.6914 75.7363 62.4639 75.0771 64.1338 74.1982C65.833 73.3193 67.4004 72.25 68.8359 70.9902C70.3008 69.7305 71.5898 68.3096 72.7031 66.7275L63.9141 57.8945C63.4453 58.9492 62.8301 59.916 62.0684 60.7949C61.3359 61.6445 60.4863 62.377 59.5195 62.9922C58.582 63.5781 57.5713 64.0322 56.4873 64.3545C55.4033 64.6768 54.2754 64.8379 53.1035 64.8379C52.6348 64.8379 52.166 64.8232 51.6973 64.7939C51.2285 64.7354 50.7598 64.6328 50.291 64.4863L72.791 37.3721C71.6777 35.79 70.3887 34.3691 68.9238 33.1094C67.459 31.8203 65.877 30.7363 64.1777 29.8574C62.5078 28.9785 60.7354 28.3047 58.8604 27.8359C56.9854 27.3672 55.0664 27.1328 53.1035 27.1328ZM53.1035 39.2617C53.6895 39.2617 54.2461 39.291 54.7734 39.3496C55.3301 39.4082 55.8867 39.54 56.4434 39.7451L42.4688 58.29C42.2344 57.8799 42.0439 57.4111 41.8975 56.8838C41.751 56.3564 41.6191 55.8145 41.502 55.2578C41.4141 54.6719 41.3408 54.1006 41.2822 53.5439C41.2529 52.9873 41.2383 52.4893 41.2383 52.0498C41.2383 50.0869 41.5459 48.3291 42.1611 46.7764C42.7764 45.1943 43.6113 43.8467 44.666 42.7334C45.75 41.6201 47.0098 40.7705 48.4453 40.1846C49.9102 39.5693 51.4629 39.2617 53.1035 39.2617Z" fill="url(#paint0_linear_155_10)" fill-opacity="0.3"/>
<defs>
<linearGradient id="paint0_linear_155_10" x1="9" y1="5" x2="100" y2="96" gradientUnits="userSpaceOnUse">
<stop stop-opacity="0"/>
<stop offset="1"/>
</linearGradient>
</defs>
</svg>
